<svg class="icon" version="1.1" viewBox="0 0 20 20" xmlns="http://www.w3.org/2000/svg" xmlns:xlink="http://www.w3.org/1999/xlink" fill="#1D272D">
 <a class="hide-on-fallback" transform="matrix(3.1496 0 0 3.1496 -.00012611 .01532)">
  <g transform="translate(0,-290.65)">
   <path class="cls-2" d="m1.9969 296.4c2.3962 0 3.7069-1.9853 3.7069-3.7069 0-0.0564 0-0.11252-0.00381-0.1684a2.6507 2.6507 0 0 0 0.64999-0.67437 2.6005 2.6005 0 0 1-0.74828 0.20498 1.3073 1.3073 0 0 0 0.57277-0.7206 2.6109 2.6109 0 0 1-0.82728 0.31623 1.304 1.304 0 0 0-2.2202 1.1882 3.6987 3.6987 0 0 1-2.685-1.3612 1.3038 1.3038 0 0 0 0.40335 1.7391 1.2931 1.2931 0 0 1-0.59131-0.16307v0.0165a1.3033 1.3033 0 0 0 1.0452 1.2771 1.3007 1.3007 0 0 1-0.58826 0.0224 1.3043 1.3043 0 0 0 1.2172 0.90475 2.6142 2.6142 0 0 1-1.618 0.5588 2.652 2.652 0 0 1-0.31013-0.0188 3.6883 3.6883 0 0 0 1.9969 0.5842"/>
  </g>
 </a>
 <image width="20" height="20" src="{{site.baseurl}}img/social/twitter.png" xlink:href=""/>
</svg>
