<svg version="1" xmlns="http://www.w3.org/2000/svg" width="341.333" height="341.333" viewBox="0 0 256.000000 256.000000"><path d="M0 52.3v16.4l25.8-.1h25.7l.3 75.7.2 75.7h33.7l-.1-91.8-.1-91.7-42.7-.3L0 36v16.3zM119.4 86.2l.1 50.3h39c39.8.1 41.6.2 50.2 4.1 4.2 1.9 9.7 8.4 11.1 13.3 1.4 4.5 1.5 14 .3 19.4-1.2 5-4.5 9.8-8.8 12.5-7.1 4.7-12.8 5.3-52.6 5.7-20.5.1-37.7.3-38.3.4-.7.1-1.1 5-1.1 14.2l-.1 14 44.2-.3c42.1-.4 44.5-.5 52.1-2.7 19.4-5.5 32.2-16.6 37.9-33 2.2-6.5 3.1-23 1.5-30.1-2.8-12.9-10.5-22.3-23.6-28.8l-7.3-3.6 3.4-3.6c7.6-7.8 11.7-19.8 11.8-34 .2-21.6-6.6-33.8-22.9-41.2-11.4-5.1-23.3-6.4-62.4-6.7l-34.6-.2.1 50.3zM195 66.5c5.3 1.8 10.5 6.7 11.7 11.3.5 1.5.8 6.6.8 11.3 0 7.8-.2 8.9-2.8 12.2-5.5 7.3-8.6 8.1-31.4 8.5l-20.3.3V87.7c0-12.3.2-22.6.4-22.8.2-.2 8.6-.3 18.5-.2 13.8.1 19.3.5 23.1 1.8z"/></svg>