<?xml version="1.0" standalone="no"?>
<!DOCTYPE svg PUBLIC "-//W3C//DTD SVG 20010904//EN"
 "http://www.w3.org/TR/2001/REC-SVG-20010904/DTD/svg10.dtd">
<svg version="1.0" xmlns="http://www.w3.org/2000/svg"
 width="260.000000pt" height="260.000000pt" viewBox="0 0 260.000000 260.000000"
 preserveAspectRatio="xMidYMid meet">
<metadata>
Created by potrace 1.11, written by Peter Selinger 2001-2013
</metadata>
<g transform="translate(0.000000,260.000000) scale(0.100000,-0.100000)"
fill="#000000" stroke="none">
<path d="M929 2340 c-1 -8 -2 -32 -1 -52 0 -21 -3 -39 -6 -39 -4 -1 -56 -2
-117 -3 l-110 -1 -3 -48 -3 -47 -135 0 -134 0 0 -100 0 -100 -134 0 c-98 0
-135 -3 -138 -12 -3 -7 -4 -48 -3 -90 1 -64 -1 -78 -14 -79 -9 0 -42 -1 -73 0
l-58 0 0 -138 0 -139 32 3 c18 2 37 1 43 -1 7 -3 10 -48 10 -132 -1 -70 0
-132 2 -138 3 -7 23 -11 49 -10 25 1 49 -1 55 -5 6 -3 10 -46 10 -103 0 -69 3
-96 12 -97 6 -1 37 -2 67 -3 l55 -2 0 -57 c0 -31 2 -58 5 -58 3 -1 47 -2 98
-4 l92 -2 0 37 0 37 -47 -2 c-71 -2 -75 1 -73 54 1 25 1 51 1 58 -1 9 -20 12
-66 10 -39 -2 -66 2 -66 8 -6 44 -2 118 6 123 5 3 55 6 110 7 l100 0 3 37 3
37 -166 -1 c-91 0 -168 2 -170 4 -5 4 -8 99 -6 168 l1 36 96 -1 c87 -1 97 1
104 19 4 11 5 29 2 39 -4 16 -16 18 -131 17 -69 -1 -133 -1 -142 -1 -25 1 -26
121 -1 122 9 1 64 2 122 3 l104 1 7 33 c3 17 4 33 0 34 -10 2 -45 5 -73 7 -27
1 -28 3 -28 55 l0 54 196 0 c107 0 198 3 201 6 4 3 7 19 7 36 l1 30 -68 0 -68
0 3 62 3 63 130 0 c72 0 132 3 136 7 3 4 4 26 3 48 l-1 40 118 0 119 0 0 55 0
55 167 -2 168 -3 -1 -132 0 -133 39 0 c36 0 39 2 35 24 -9 44 3 49 116 49
l106 -1 0 49 c0 27 3 50 8 50 22 4 129 5 140 1 8 -3 12 -34 12 -108 l0 -104
-39 0 c-38 0 -39 -1 -38 -32 2 -30 5 -33 40 -36 36 -3 37 -5 37 -41 0 -36 1
-37 35 -33 32 4 35 7 35 38 l0 34 98 0 99 0 1 76 c1 83 3 86 32 91 23 3 22 24
20 -260 l-1 -208 38 3 38 3 -1 53 0 52 33 0 33 0 0 -95 0 -95 63 0 62 0 1 -64
c1 -62 1 -63 -24 -62 -20 1 -28 -5 -32 -24 -12 -47 -5 -50 106 -50 l103 0 -1
-35 -1 -35 -79 0 -78 0 0 -53 c0 -30 -3 -56 -6 -59 -3 -3 -17 -3 -32 1 -21 6
-27 14 -28 37 -3 69 3 65 -84 63 -45 -1 -84 2 -88 6 -4 3 -8 20 -8 36 -1 16
-2 33 -3 39 0 5 -16 9 -33 7 -31 -2 -33 -5 -36 -44 -3 -39 -5 -42 -35 -45 -28
-3 -32 -7 -35 -35 -3 -26 1 -33 15 -34 41 -3 46 -5 50 -16 5 -14 -11 -16 -97
-14 -100 2 -96 9 -96 -128 0 -66 -3 -123 -6 -126 -10 -10 -39 8 -37 24 1 9 1
32 0 51 -1 34 -3 36 -33 35 -26 -1 -34 -5 -36 -23 -3 -20 -9 -22 -73 -22 l-69
0 0 38 c0 39 -7 42 -65 34 -7 -1 -10 -34 -9 -87 l2 -85 -37 -1 c-20 0 -82 -1
-139 -2 l-102 -2 -1 45 c-1 25 0 57 1 73 2 29 2 29 -80 29 -90 0 -87 1 -86
-34 1 -31 4 -33 44 -36 23 -2 43 -8 43 -15 1 -7 2 -39 3 -72 l1 -60 213 0 213
0 -1 40 c-1 22 -1 45 -1 51 1 7 28 11 71 11 l70 1 0 -34 0 -34 93 0 94 0 -1
116 c-1 64 2 121 6 127 4 7 42 12 100 12 l93 1 -1 49 -1 50 53 0 54 1 0 -48
c0 -26 3 -49 8 -49 48 -7 202 -3 203 5 1 11 5 57 8 89 1 14 8 18 34 17 17 -1
51 -2 75 -1 l42 1 0 104 c0 74 -4 105 -12 108 -7 2 -41 3 -75 3 l-63 -1 0 98
0 98 -59 0 c-38 0 -60 4 -63 13 -3 6 -4 46 -3 87 1 41 -2 80 -6 85 -4 6 -36
10 -71 9 l-63 -2 0 177 0 176 -100 0 -100 0 0 -80 0 -80 -63 -1 -62 -2 0 144
0 143 -147 -1 -148 -2 -5 -50 -5 -51 -72 -1 -73 0 -1 40 c0 23 -1 68 -1 101
l0 60 -239 0 c-205 0 -239 -2 -240 -15z"/>
<path d="M797 1443 c-3 -5 -8 -25 -11 -45 -9 -55 -54 -150 -83 -176 -15 -12
-45 -27 -67 -33 -23 -6 -47 -13 -53 -15 -7 -2 -13 -13 -13 -24 0 -21 5 -23 83
-21 26 0 48 -3 48 -7 1 -4 2 -167 4 -362 1 -309 4 -360 19 -395 23 -54 43 -74
96 -98 87 -39 227 -19 307 43 22 17 22 19 5 39 l-17 21 -49 -25 c-58 -29 -130
-33 -165 -9 -48 34 -51 58 -51 437 l0 355 113 0 c61 0 118 1 125 1 7 1 12 14
12 31 l0 30 -125 0 -125 0 0 130 0 130 -24 0 c-14 0 -27 -3 -29 -7z"/>
</g>
</svg>
