<svg class="icon" version="1.1" viewBox="0 0 20 20" xmlns="http://www.w3.org/2000/svg" xmlns:xlink="http://www.w3.org/1999/xlink" fill="#1D272D">
 <a class="hide-on-fallback" transform="matrix(1.25 0 0 1.25 -5.0408e-7 .0071986)">
  <g transform="translate(0,-22.306)">
   <path d="m0.84345 38.244c-0.40599-0.12729-0.73421-0.4953-0.81319-0.91177-0.040096-0.21141-0.040473-13.845-3.519e-4 -14.057 0.068429-0.36083 0.33668-0.70159 0.67837-0.86171l0.17138-0.08032h14.241l0.17138 0.08032c0.34216 0.16034 0.61011 0.49853 0.67724 0.85475 0.04078 0.21637 0.04187 13.847 0.0011 14.062-0.06843 0.36083-0.33669 0.70158-0.67837 0.86171l-0.17138 0.08032-7.0756 0.0056c-5.7927 0.0046-7.0984-0.0014-7.2011-0.03379zm3.8942-6.1239v-3.7836h-2.3238v7.5672h2.3238zm3.8511 1.6013c0.01024-1.8989 0.01819-2.2093 0.06109-2.3908 0.11231-0.47504 0.26774-0.74345 0.53777-0.92871 0.22636-0.15529 0.42486-0.20342 0.83809-0.2032 0.33072 1.79e-4 0.37145 0.0066 0.54363 0.08596 0.31192 0.14375 0.4886 0.37985 0.61174 0.81747 0.06288 0.22348 0.0645 0.27846 0.07402 2.515l0.0098 2.2865h2.3112l0.01896-2.0035c0.01947-2.0573-0.0024-2.9795-0.08219-3.4642-0.17198-1.0444-0.59682-1.6955-1.3305-2.0387-0.53612-0.25086-1.5004-0.33996-2.0823-0.19239-0.57844 0.14669-1.2076 0.59504-1.4785 1.0536-0.11085 0.18765-0.1303 0.12564-0.1303-0.41544v-0.50646h-2.2344v7.5672h2.32zm-4.5861-6.5512c0.35475-0.11719 0.60921-0.34484 0.78658-0.70374 0.11034-0.22327 0.11228-0.23315 0.11228-0.57289 0-0.33878-0.00211-0.35018-0.11056-0.5694-0.13957-0.28241-0.38725-0.52646-0.67036-0.66056-0.19138-0.09065-0.22065-0.09578-0.54637-0.09578-0.33863 0-0.34784 0.0018-0.57391 0.11355-0.29291 0.14477-0.49123 0.34142-0.62866 0.62339-0.32236 0.6614-0.094901 1.3959 0.54869 1.7718 0.31854 0.18606 0.70202 0.21922 1.0823 0.0936z"/>
  </g>
 </a>
 <image width="20" height="20" src="{{site.baseurl}}img/social/linkedin.png" xlink:href=""/>
</svg>
